# xmcd
#
# Track frame offsets:
#	150
#	17159
#	33194
#	46898
#	64602
#	83900
#	102067
#	116852
#	136215
#	151456
#	172256
#	186363
#	203430
#	222589
#	255872
#	281325
#	302308
#
# Disc length: 4444 seconds
#
# Revision: 1
# Processed by: cddbd v1.5.2PL0 Copyright (c) Steve Scherf et al.
# Submitted via: audiograbber 1.83.01
#
DISCID=e1115a11
DTITLE=Johnny Reid - A Place Called Love - Live In Concert - Heart And Soul
DYEAR=2011
DGENRE=Country
TTITLE0=Love Sweet Love
TTITLE1=Out Of The Blue
TTITLE2=Love Thing
TTITLE3=Help Me Make It Through The Night (K. Kristofferson)
TTITLE4=A Woman Like You
TTITLE5=That Man Is Me
TTITLE6=My Girl (S. Robertson, R. White)
TTITLE7=Hands Of A Working Man
TTITLE8=Let's Go Higher
TTITLE9=A Place Called Love
TTITLE10=Good People
TTITLE11=Brings Me Home
TTITLE12=Darlin' (O. Blandamer)
TTITLE13=Today I'm Gonna Try And Change The World
TTITLE14=Thank You
TTITLE15=Dance With Me
TTITLE16=Tell Me Margaret
EXTD=Full length concert at the Halifax Metro Centre at the end of 2010, sold o
EXTD=ut, during the A Place Called Love tour.
EXTT0=
EXTT1=
EXTT2=
EXTT3=
EXTT4=
EXTT5=
EXTT6=
EXTT7=
EXTT8=
EXTT9=
EXTT10=
EXTT11=
EXTT12=
EXTT13=
EXTT14=
EXTT15=
EXTT16=
PLAYORDER=
